<?xml version="1.0" encoding="UTF-8" standalone="no"?>
<!DOCTYPE svg PUBLIC "-//W3C//DTD SVG 1.1//EN"
 "http://www.w3.org/Graphics/SVG/1.1/DTD/svg11.dtd">
<!-- Generated by graphviz version 2.40.1 (20161225.0304)
 -->
<!-- Title: dependencies Pages: 1 -->
<svg width="706pt" height="211pt"
 viewBox="0.00 0.00 706.00 211.00" xmlns="http://www.w3.org/2000/svg" xmlns:xlink="http://www.w3.org/1999/xlink">
<g id="graph0" class="graph" transform="scale(1 1) rotate(0) translate(4 207)">
<title>dependencies</title>
<polygon fill="#ffffff" stroke="transparent" points="-4,4 -4,-207 702,-207 702,4 -4,4"/>
<text text-anchor="start" x="328.0091" y="-42.4" font-family="sans-serif" font-weight="bold" font-size="14.00" fill="#000000">Legend</text>
<polygon fill="#ffffb3" stroke="transparent" points="115,-10 115,-30 135,-30 135,-10 115,-10"/>
<text text-anchor="start" x="138.629" y="-15.4" font-family="sans-serif" font-size="14.00" fill="#000000"> &#160;Declarations</text>
<polygon fill="#8dd3c7" stroke="transparent" points="228,-10 228,-30 248,-30 248,-10 228,-10"/>
<text text-anchor="start" x="251.7251" y="-15.4" font-family="sans-serif" font-size="14.00" fill="#000000"> &#160;Module</text>
<polygon fill="#80b1d3" stroke="transparent" points="314,-10 314,-30 334,-30 334,-10 314,-10"/>
<text text-anchor="start" x="337.7812" y="-15.4" font-family="sans-serif" font-size="14.00" fill="#000000"> &#160;Bootstrap</text>
<polygon fill="#fdb462" stroke="transparent" points="411,-10 411,-30 431,-30 431,-10 411,-10"/>
<text text-anchor="start" x="434.6732" y="-15.4" font-family="sans-serif" font-size="14.00" fill="#000000"> &#160;Providers</text>
<polygon fill="#fb8072" stroke="transparent" points="507,-10 507,-30 527,-30 527,-10 507,-10"/>
<text text-anchor="start" x="530.7258" y="-15.4" font-family="sans-serif" font-size="14.00" fill="#000000"> &#160;Exports</text>
<g id="clust1" class="cluster">
<title>cluster_CheckoutModule</title>
<polygon fill="none" stroke="#000000" stroke-dasharray="1,5" points="8,-70 8,-195 690,-195 690,-70 8,-70"/>
</g>
<g id="clust2" class="cluster">
<title>cluster_CheckoutModule_declarations</title>
<polygon fill="none" stroke="#000000" points="532,-78 532,-130 682,-130 682,-78 532,-78"/>
</g>
<g id="clust4" class="cluster">
<title>cluster_CheckoutModule_imports</title>
<polygon fill="none" stroke="#000000" points="16,-78 16,-130 524,-130 524,-78 16,-78"/>
</g>
<!-- CheckoutComponent -->
<g id="node1" class="node">
<title>CheckoutComponent</title>
<polygon fill="#ffffb3" stroke="#000000" points="674.4888,-122 539.5112,-122 539.5112,-86 674.4888,-86 674.4888,-122"/>
<text text-anchor="middle" x="607" y="-99.8" font-family="Times,serif" font-size="14.00" fill="#000000">CheckoutComponent</text>
</g>
<!-- CheckoutModule -->
<g id="node2" class="node">
<title>CheckoutModule</title>
<polygon fill="#8dd3c7" stroke="#000000" points="412.7064,-187 409.7064,-191 388.7064,-191 385.7064,-187 299.2936,-187 299.2936,-151 412.7064,-151 412.7064,-187"/>
<text text-anchor="middle" x="356" y="-164.8" font-family="Times,serif" font-size="14.00" fill="#000000">CheckoutModule</text>
</g>
<!-- CheckoutComponent&#45;&gt;CheckoutModule -->
<g id="edge1" class="edge">
<title>CheckoutComponent&#45;&gt;CheckoutModule</title>
<path fill="none" stroke="#000000" d="M607,-122.1061C607,-141.3391 607,-169 607,-169 607,-169 422.6423,-169 422.6423,-169"/>
<polygon fill="#000000" stroke="#000000" points="422.6423,-165.5001 412.6423,-169 422.6422,-172.5001 422.6423,-165.5001"/>
</g>
<!-- AmountSelectorModule -->
<g id="node3" class="node">
<title>AmountSelectorModule</title>
<polygon fill="#8dd3c7" stroke="#000000" points="515.8061,-122 512.8061,-126 491.8061,-126 488.8061,-122 364.1939,-122 364.1939,-86 515.8061,-86 515.8061,-122"/>
<text text-anchor="middle" x="440" y="-99.8" font-family="Times,serif" font-size="14.00" fill="#000000">AmountSelectorModule</text>
</g>
<!-- AmountSelectorModule&#45;&gt;CheckoutModule -->
<g id="edge2" class="edge">
<title>AmountSelectorModule&#45;&gt;CheckoutModule</title>
<path fill="none" stroke="#000000" d="M388.4751,-122.1061C388.4751,-122.1061 388.4751,-140.991 388.4751,-140.991"/>
<polygon fill="#000000" stroke="#000000" points="384.9752,-140.9909 388.4751,-150.991 391.9752,-140.991 384.9752,-140.9909"/>
</g>
<!-- ButtonOutlinedModule -->
<g id="node4" class="node">
<title>ButtonOutlinedModule</title>
<polygon fill="#8dd3c7" stroke="#000000" points="346.161,-122 343.161,-126 322.161,-126 319.161,-122 199.839,-122 199.839,-86 346.161,-86 346.161,-122"/>
<text text-anchor="middle" x="273" y="-99.8" font-family="Times,serif" font-size="14.00" fill="#000000">ButtonOutlinedModule</text>
</g>
<!-- ButtonOutlinedModule&#45;&gt;CheckoutModule -->
<g id="edge3" class="edge">
<title>ButtonOutlinedModule&#45;&gt;CheckoutModule</title>
<path fill="none" stroke="#000000" d="M322.8636,-122.1061C322.8636,-122.1061 322.8636,-140.991 322.8636,-140.991"/>
<polygon fill="#000000" stroke="#000000" points="319.3637,-140.9909 322.8636,-150.991 326.3637,-140.991 319.3637,-140.9909"/>
</g>
<!-- CheckoutRoutingModule -->
<g id="node5" class="node">
<title>CheckoutRoutingModule</title>
<polygon fill="#8dd3c7" stroke="#000000" points="182.3243,-122 179.3243,-126 158.3243,-126 155.3243,-122 23.6757,-122 23.6757,-86 182.3243,-86 182.3243,-122"/>
<text text-anchor="middle" x="103" y="-99.8" font-family="Times,serif" font-size="14.00" fill="#000000">CheckoutRoutingModule</text>
</g>
<!-- CheckoutRoutingModule&#45;&gt;CheckoutModule -->
<g id="edge4" class="edge">
<title>CheckoutRoutingModule&#45;&gt;CheckoutModule</title>
<path fill="none" stroke="#000000" d="M103,-122.1061C103,-141.3391 103,-169 103,-169 103,-169 289.2219,-169 289.2219,-169"/>
<polygon fill="#000000" stroke="#000000" points="289.2219,-172.5001 299.2219,-169 289.2218,-165.5001 289.2219,-172.5001"/>
</g>
</g>
</svg>
