<?xml version="1.0" encoding="UTF-8" standalone="no"?>
<!DOCTYPE svg PUBLIC "-//W3C//DTD SVG 1.1//EN"
 "http://www.w3.org/Graphics/SVG/1.1/DTD/svg11.dtd">
<!-- Generated by graphviz version 2.40.1 (20161225.0304)
 -->
<!-- Title: dependencies Pages: 1 -->
<svg width="1134pt" height="211pt"
 viewBox="0.00 0.00 1134.00 211.00" xmlns="http://www.w3.org/2000/svg" xmlns:xlink="http://www.w3.org/1999/xlink">
<g id="graph0" class="graph" transform="scale(1 1) rotate(0) translate(4 207)">
<title>dependencies</title>
<polygon fill="#ffffff" stroke="transparent" points="-4,4 -4,-207 1130,-207 1130,4 -4,4"/>
<text text-anchor="start" x="542.0091" y="-42.4" font-family="sans-serif" font-weight="bold" font-size="14.00" fill="#000000">Legend</text>
<polygon fill="#ffffb3" stroke="transparent" points="329,-10 329,-30 349,-30 349,-10 329,-10"/>
<text text-anchor="start" x="352.629" y="-15.4" font-family="sans-serif" font-size="14.00" fill="#000000"> &#160;Declarations</text>
<polygon fill="#8dd3c7" stroke="transparent" points="442,-10 442,-30 462,-30 462,-10 442,-10"/>
<text text-anchor="start" x="465.7251" y="-15.4" font-family="sans-serif" font-size="14.00" fill="#000000"> &#160;Module</text>
<polygon fill="#80b1d3" stroke="transparent" points="528,-10 528,-30 548,-30 548,-10 528,-10"/>
<text text-anchor="start" x="551.7812" y="-15.4" font-family="sans-serif" font-size="14.00" fill="#000000"> &#160;Bootstrap</text>
<polygon fill="#fdb462" stroke="transparent" points="625,-10 625,-30 645,-30 645,-10 625,-10"/>
<text text-anchor="start" x="648.6732" y="-15.4" font-family="sans-serif" font-size="14.00" fill="#000000"> &#160;Providers</text>
<polygon fill="#fb8072" stroke="transparent" points="721,-10 721,-30 741,-30 741,-10 721,-10"/>
<text text-anchor="start" x="744.7258" y="-15.4" font-family="sans-serif" font-size="14.00" fill="#000000"> &#160;Exports</text>
<g id="clust1" class="cluster">
<title>cluster_AuthModule</title>
<polygon fill="none" stroke="#000000" stroke-dasharray="1,5" points="8,-70 8,-195 1118,-195 1118,-70 8,-70"/>
</g>
<g id="clust2" class="cluster">
<title>cluster_AuthModule_declarations</title>
<polygon fill="none" stroke="#000000" points="614,-78 614,-130 1110,-130 1110,-78 614,-78"/>
</g>
<g id="clust6" class="cluster">
<title>cluster_AuthModule_imports</title>
<polygon fill="none" stroke="#000000" points="158,-78 158,-130 606,-130 606,-78 158,-78"/>
</g>
<g id="clust9" class="cluster">
<title>cluster_AuthModule_providers</title>
<polygon fill="none" stroke="#000000" points="16,-78 16,-130 150,-130 150,-78 16,-78"/>
</g>
<!-- AuthFormComponent -->
<g id="node1" class="node">
<title>AuthFormComponent</title>
<polygon fill="#ffffb3" stroke="#000000" points="1101.6638,-122 962.3362,-122 962.3362,-86 1101.6638,-86 1101.6638,-122"/>
<text text-anchor="middle" x="1032" y="-99.8" font-family="Times,serif" font-size="14.00" fill="#000000">AuthFormComponent</text>
</g>
<!-- AuthModule -->
<g id="node4" class="node">
<title>AuthModule</title>
<polygon fill="#8dd3c7" stroke="#000000" points="575.5482,-187 572.5482,-191 551.5482,-191 548.5482,-187 488.4518,-187 488.4518,-151 575.5482,-151 575.5482,-187"/>
<text text-anchor="middle" x="532" y="-164.8" font-family="Times,serif" font-size="14.00" fill="#000000">AuthModule</text>
</g>
<!-- AuthFormComponent&#45;&gt;AuthModule -->
<g id="edge1" class="edge">
<title>AuthFormComponent&#45;&gt;AuthModule</title>
<path fill="none" stroke="#000000" d="M1032,-122.2921C1032,-144.2057 1032,-178 1032,-178 1032,-178 585.9334,-178 585.9334,-178"/>
<polygon fill="#000000" stroke="#000000" points="585.9335,-174.5001 575.9334,-178 585.9334,-181.5001 585.9335,-174.5001"/>
</g>
<!-- RestaurantAuthComponent -->
<g id="node2" class="node">
<title>RestaurantAuthComponent</title>
<polygon fill="#ffffb3" stroke="#000000" points="944.6965,-122 775.3035,-122 775.3035,-86 944.6965,-86 944.6965,-122"/>
<text text-anchor="middle" x="860" y="-99.8" font-family="Times,serif" font-size="14.00" fill="#000000">RestaurantAuthComponent</text>
</g>
<!-- RestaurantAuthComponent&#45;&gt;AuthModule -->
<g id="edge2" class="edge">
<title>RestaurantAuthComponent&#45;&gt;AuthModule</title>
<path fill="none" stroke="#000000" d="M860,-122.1061C860,-141.3391 860,-169 860,-169 860,-169 585.5559,-169 585.5559,-169"/>
<polygon fill="#000000" stroke="#000000" points="585.5559,-165.5001 575.5559,-169 585.5558,-172.5001 585.5559,-165.5001"/>
</g>
<!-- UserAuthComponent -->
<g id="node3" class="node">
<title>UserAuthComponent</title>
<polygon fill="#ffffb3" stroke="#000000" points="757.7562,-122 622.2438,-122 622.2438,-86 757.7562,-86 757.7562,-122"/>
<text text-anchor="middle" x="690" y="-99.8" font-family="Times,serif" font-size="14.00" fill="#000000">UserAuthComponent</text>
</g>
<!-- UserAuthComponent&#45;&gt;AuthModule -->
<g id="edge3" class="edge">
<title>UserAuthComponent&#45;&gt;AuthModule</title>
<path fill="none" stroke="#000000" d="M690,-122.027C690,-138.3976 690,-160 690,-160 690,-160 585.5924,-160 585.5924,-160"/>
<polygon fill="#000000" stroke="#000000" points="585.5925,-156.5001 575.5924,-160 585.5924,-163.5001 585.5925,-156.5001"/>
</g>
<!-- AuthRoutingModule -->
<g id="node5" class="node">
<title>AuthRoutingModule</title>
<polygon fill="#8dd3c7" stroke="#000000" points="598.1652,-122 595.1652,-126 574.1652,-126 571.1652,-122 465.8348,-122 465.8348,-86 598.1652,-86 598.1652,-122"/>
<text text-anchor="middle" x="532" y="-99.8" font-family="Times,serif" font-size="14.00" fill="#000000">AuthRoutingModule</text>
</g>
<!-- AuthRoutingModule&#45;&gt;AuthModule -->
<g id="edge4" class="edge">
<title>AuthRoutingModule&#45;&gt;AuthModule</title>
<path fill="none" stroke="#000000" d="M532,-122.1061C532,-122.1061 532,-140.991 532,-140.991"/>
<polygon fill="#000000" stroke="#000000" points="528.5001,-140.9909 532,-150.991 535.5001,-140.991 528.5001,-140.9909"/>
</g>
<!-- AuthStoreModule -->
<g id="node6" class="node">
<title>AuthStoreModule</title>
<polygon fill="#8dd3c7" stroke="#000000" points="447.5954,-122 444.5954,-126 423.5954,-126 420.5954,-122 330.4046,-122 330.4046,-86 447.5954,-86 447.5954,-122"/>
<text text-anchor="middle" x="389" y="-99.8" font-family="Times,serif" font-size="14.00" fill="#000000">AuthStoreModule</text>
</g>
<!-- AuthStoreModule&#45;&gt;AuthModule -->
<g id="edge5" class="edge">
<title>AuthStoreModule&#45;&gt;AuthModule</title>
<path fill="none" stroke="#000000" d="M389,-122.027C389,-138.3976 389,-160 389,-160 389,-160 478.3183,-160 478.3183,-160"/>
<polygon fill="#000000" stroke="#000000" points="478.3183,-163.5001 488.3183,-160 478.3182,-156.5001 478.3183,-163.5001"/>
</g>
<!-- ButtonOutlinedModule -->
<g id="node7" class="node">
<title>ButtonOutlinedModule</title>
<polygon fill="#8dd3c7" stroke="#000000" points="312.161,-122 309.161,-126 288.161,-126 285.161,-122 165.839,-122 165.839,-86 312.161,-86 312.161,-122"/>
<text text-anchor="middle" x="239" y="-99.8" font-family="Times,serif" font-size="14.00" fill="#000000">ButtonOutlinedModule</text>
</g>
<!-- ButtonOutlinedModule&#45;&gt;AuthModule -->
<g id="edge6" class="edge">
<title>ButtonOutlinedModule&#45;&gt;AuthModule</title>
<path fill="none" stroke="#000000" d="M239,-122.1061C239,-141.3391 239,-169 239,-169 239,-169 478.4513,-169 478.4513,-169"/>
<polygon fill="#000000" stroke="#000000" points="478.4514,-172.5001 488.4513,-169 478.4513,-165.5001 478.4514,-172.5001"/>
</g>
<!-- AuthService -->
<g id="node8" class="node">
<title>AuthService</title>
<ellipse fill="#fdb462" stroke="#000000" cx="83" cy="-104" rx="59.1083" ry="18"/>
<text text-anchor="middle" x="83" y="-99.8" font-family="Times,serif" font-size="14.00" fill="#000000">AuthService</text>
</g>
<!-- AuthService&#45;&gt;AuthModule -->
<g id="edge7" class="edge">
<title>AuthService&#45;&gt;AuthModule</title>
<path fill="none" stroke="#000000" d="M83,-122.2921C83,-144.2057 83,-178 83,-178 83,-178 478.1305,-178 478.1305,-178"/>
<polygon fill="#000000" stroke="#000000" points="478.1305,-181.5001 488.1305,-178 478.1304,-174.5001 478.1305,-181.5001"/>
</g>
</g>
</svg>
