<?xml version="1.0" encoding="UTF-8" standalone="no"?>
<!DOCTYPE svg PUBLIC "-//W3C//DTD SVG 1.1//EN"
 "http://www.w3.org/Graphics/SVG/1.1/DTD/svg11.dtd">
<!-- Generated by graphviz version 2.40.1 (20161225.0304)
 -->
<!-- Title: dependencies Pages: 1 -->
<svg width="865pt" height="211pt"
 viewBox="0.00 0.00 865.00 211.00" xmlns="http://www.w3.org/2000/svg" xmlns:xlink="http://www.w3.org/1999/xlink">
<g id="graph0" class="graph" transform="scale(1 1) rotate(0) translate(4 207)">
<title>dependencies</title>
<polygon fill="#ffffff" stroke="transparent" points="-4,4 -4,-207 861,-207 861,4 -4,4"/>
<text text-anchor="start" x="407.5091" y="-42.4" font-family="sans-serif" font-weight="bold" font-size="14.00" fill="#000000">Legend</text>
<polygon fill="#ffffb3" stroke="transparent" points="194.5,-10 194.5,-30 214.5,-30 214.5,-10 194.5,-10"/>
<text text-anchor="start" x="218.129" y="-15.4" font-family="sans-serif" font-size="14.00" fill="#000000"> &#160;Declarations</text>
<polygon fill="#8dd3c7" stroke="transparent" points="307.5,-10 307.5,-30 327.5,-30 327.5,-10 307.5,-10"/>
<text text-anchor="start" x="331.2251" y="-15.4" font-family="sans-serif" font-size="14.00" fill="#000000"> &#160;Module</text>
<polygon fill="#80b1d3" stroke="transparent" points="393.5,-10 393.5,-30 413.5,-30 413.5,-10 393.5,-10"/>
<text text-anchor="start" x="417.2812" y="-15.4" font-family="sans-serif" font-size="14.00" fill="#000000"> &#160;Bootstrap</text>
<polygon fill="#fdb462" stroke="transparent" points="490.5,-10 490.5,-30 510.5,-30 510.5,-10 490.5,-10"/>
<text text-anchor="start" x="514.1732" y="-15.4" font-family="sans-serif" font-size="14.00" fill="#000000"> &#160;Providers</text>
<polygon fill="#fb8072" stroke="transparent" points="586.5,-10 586.5,-30 606.5,-30 606.5,-10 586.5,-10"/>
<text text-anchor="start" x="610.2258" y="-15.4" font-family="sans-serif" font-size="14.00" fill="#000000"> &#160;Exports</text>
<g id="clust1" class="cluster">
<title>cluster_AdminModule</title>
<polygon fill="none" stroke="#000000" stroke-dasharray="1,5" points="8,-70 8,-195 849,-195 849,-70 8,-70"/>
</g>
<g id="clust2" class="cluster">
<title>cluster_AdminModule_declarations</title>
<polygon fill="none" stroke="#000000" points="348,-78 348,-130 841,-130 841,-78 348,-78"/>
</g>
<g id="clust6" class="cluster">
<title>cluster_AdminModule_imports</title>
<polygon fill="none" stroke="#000000" points="16,-78 16,-130 340,-130 340,-78 16,-78"/>
</g>
<!-- AccountComponent -->
<g id="node1" class="node">
<title>AccountComponent</title>
<polygon fill="#ffffb3" stroke="#000000" points="833.259,-122 704.741,-122 704.741,-86 833.259,-86 833.259,-122"/>
<text text-anchor="middle" x="769" y="-99.8" font-family="Times,serif" font-size="14.00" fill="#000000">AccountComponent</text>
</g>
<!-- AdminModule -->
<g id="node4" class="node">
<title>AdminModule</title>
<polygon fill="#8dd3c7" stroke="#000000" points="488.4386,-187 485.4386,-191 464.4386,-191 461.4386,-187 389.5614,-187 389.5614,-151 488.4386,-151 488.4386,-187"/>
<text text-anchor="middle" x="439" y="-164.8" font-family="Times,serif" font-size="14.00" fill="#000000">AdminModule</text>
</g>
<!-- AccountComponent&#45;&gt;AdminModule -->
<g id="edge1" class="edge">
<title>AccountComponent&#45;&gt;AdminModule</title>
<path fill="none" stroke="#000000" d="M769,-122.2843C769,-143.3211 769,-175 769,-175 769,-175 498.4043,-175 498.4043,-175"/>
<polygon fill="#000000" stroke="#000000" points="498.4044,-171.5001 488.4043,-175 498.4043,-178.5001 498.4044,-171.5001"/>
</g>
<!-- AdminPageComponent -->
<g id="node2" class="node">
<title>AdminPageComponent</title>
<polygon fill="#ffffb3" stroke="#000000" points="686.9326,-122 539.0674,-122 539.0674,-86 686.9326,-86 686.9326,-122"/>
<text text-anchor="middle" x="613" y="-99.8" font-family="Times,serif" font-size="14.00" fill="#000000">AdminPageComponent</text>
</g>
<!-- AdminPageComponent&#45;&gt;AdminModule -->
<g id="edge2" class="edge">
<title>AdminPageComponent&#45;&gt;AdminModule</title>
<path fill="none" stroke="#000000" d="M613,-122.0225C613,-139.3734 613,-163 613,-163 613,-163 498.396,-163 498.396,-163"/>
<polygon fill="#000000" stroke="#000000" points="498.396,-159.5001 488.396,-163 498.396,-166.5001 498.396,-159.5001"/>
</g>
<!-- AdminSettingsComponent -->
<g id="node3" class="node">
<title>AdminSettingsComponent</title>
<polygon fill="#ffffb3" stroke="#000000" points="521.8341,-122 356.1659,-122 356.1659,-86 521.8341,-86 521.8341,-122"/>
<text text-anchor="middle" x="439" y="-99.8" font-family="Times,serif" font-size="14.00" fill="#000000">AdminSettingsComponent</text>
</g>
<!-- AdminSettingsComponent&#45;&gt;AdminModule -->
<g id="edge3" class="edge">
<title>AdminSettingsComponent&#45;&gt;AdminModule</title>
<path fill="none" stroke="#000000" d="M439,-122.1061C439,-122.1061 439,-140.991 439,-140.991"/>
<polygon fill="#000000" stroke="#000000" points="435.5001,-140.9909 439,-150.991 442.5001,-140.991 435.5001,-140.9909"/>
</g>
<!-- AdminRoutingModule -->
<g id="node5" class="node">
<title>AdminRoutingModule</title>
<polygon fill="#8dd3c7" stroke="#000000" points="331.5561,-122 328.5561,-126 307.5561,-126 304.5561,-122 188.4439,-122 188.4439,-86 331.5561,-86 331.5561,-122"/>
<text text-anchor="middle" x="260" y="-99.8" font-family="Times,serif" font-size="14.00" fill="#000000">AdminRoutingModule</text>
</g>
<!-- AdminRoutingModule&#45;&gt;AdminModule -->
<g id="edge4" class="edge">
<title>AdminRoutingModule&#45;&gt;AdminModule</title>
<path fill="none" stroke="#000000" d="M260,-122.0225C260,-139.3734 260,-163 260,-163 260,-163 379.6136,-163 379.6136,-163"/>
<polygon fill="#000000" stroke="#000000" points="379.6137,-166.5001 389.6136,-163 379.6136,-159.5001 379.6137,-166.5001"/>
</g>
<!-- ButtonOutlinedModule -->
<g id="node6" class="node">
<title>ButtonOutlinedModule</title>
<polygon fill="#8dd3c7" stroke="#000000" points="170.161,-122 167.161,-126 146.161,-126 143.161,-122 23.839,-122 23.839,-86 170.161,-86 170.161,-122"/>
<text text-anchor="middle" x="97" y="-99.8" font-family="Times,serif" font-size="14.00" fill="#000000">ButtonOutlinedModule</text>
</g>
<!-- ButtonOutlinedModule&#45;&gt;AdminModule -->
<g id="edge5" class="edge">
<title>ButtonOutlinedModule&#45;&gt;AdminModule</title>
<path fill="none" stroke="#000000" d="M97,-122.2843C97,-143.3211 97,-175 97,-175 97,-175 379.6355,-175 379.6355,-175"/>
<polygon fill="#000000" stroke="#000000" points="379.6355,-178.5001 389.6355,-175 379.6355,-171.5001 379.6355,-178.5001"/>
</g>
</g>
</svg>
