<?xml version="1.0" encoding="UTF-8" standalone="no"?>
<!DOCTYPE svg PUBLIC "-//W3C//DTD SVG 1.1//EN"
 "http://www.w3.org/Graphics/SVG/1.1/DTD/svg11.dtd">
<!-- Generated by graphviz version 2.40.1 (20161225.0304)
 -->
<!-- Title: dependencies Pages: 1 -->
<svg width="504pt" height="284pt"
 viewBox="0.00 0.00 504.00 284.00" xmlns="http://www.w3.org/2000/svg" xmlns:xlink="http://www.w3.org/1999/xlink">
<g id="graph0" class="graph" transform="scale(1 1) rotate(0) translate(4 280)">
<title>dependencies</title>
<polygon fill="#ffffff" stroke="transparent" points="-4,4 -4,-280 500,-280 500,4 -4,4"/>
<text text-anchor="start" x="227.0091" y="-42.4" font-family="sans-serif" font-weight="bold" font-size="14.00" fill="#000000">Legend</text>
<polygon fill="#ffffb3" stroke="transparent" points="14,-10 14,-30 34,-30 34,-10 14,-10"/>
<text text-anchor="start" x="37.629" y="-15.4" font-family="sans-serif" font-size="14.00" fill="#000000"> &#160;Declarations</text>
<polygon fill="#8dd3c7" stroke="transparent" points="127,-10 127,-30 147,-30 147,-10 127,-10"/>
<text text-anchor="start" x="150.7251" y="-15.4" font-family="sans-serif" font-size="14.00" fill="#000000"> &#160;Module</text>
<polygon fill="#80b1d3" stroke="transparent" points="213,-10 213,-30 233,-30 233,-10 213,-10"/>
<text text-anchor="start" x="236.7812" y="-15.4" font-family="sans-serif" font-size="14.00" fill="#000000"> &#160;Bootstrap</text>
<polygon fill="#fdb462" stroke="transparent" points="310,-10 310,-30 330,-30 330,-10 310,-10"/>
<text text-anchor="start" x="333.6732" y="-15.4" font-family="sans-serif" font-size="14.00" fill="#000000"> &#160;Providers</text>
<polygon fill="#fb8072" stroke="transparent" points="406,-10 406,-30 426,-30 426,-10 406,-10"/>
<text text-anchor="start" x="429.7258" y="-15.4" font-family="sans-serif" font-size="14.00" fill="#000000"> &#160;Exports</text>
<g id="clust1" class="cluster">
<title>cluster_ButtonOutlinedModule</title>
<polygon fill="none" stroke="#000000" stroke-dasharray="1,5" points="58,-70 58,-268 438,-268 438,-70 58,-70"/>
</g>
<g id="clust2" class="cluster">
<title>cluster_ButtonOutlinedModule_declarations</title>
<polygon fill="none" stroke="#000000" points="246,-78 246,-130 430,-130 430,-78 246,-78"/>
</g>
<g id="clust4" class="cluster">
<title>cluster_ButtonOutlinedModule_imports</title>
<polygon fill="none" stroke="#000000" points="66,-78 66,-130 238,-130 238,-78 66,-78"/>
</g>
<g id="clust5" class="cluster">
<title>cluster_ButtonOutlinedModule_exports</title>
<polygon fill="none" stroke="#000000" points="154,-208 154,-260 342,-260 342,-208 154,-208"/>
</g>
<!-- ButtonOutlinedComponent -->
<g id="node1" class="node">
<title>ButtonOutlinedComponent</title>
<polygon fill="#ffffb3" stroke="#000000" points="422.4438,-122 253.5562,-122 253.5562,-86 422.4438,-86 422.4438,-122"/>
<text text-anchor="middle" x="338" y="-99.8" font-family="Times,serif" font-size="14.00" fill="#000000">ButtonOutlinedComponent</text>
</g>
<!-- ButtonOutlinedModule -->
<g id="node2" class="node">
<title>ButtonOutlinedModule</title>
<polygon fill="#8dd3c7" stroke="#000000" points="321.161,-187 318.161,-191 297.161,-191 294.161,-187 174.839,-187 174.839,-151 321.161,-151 321.161,-187"/>
<text text-anchor="middle" x="248" y="-164.8" font-family="Times,serif" font-size="14.00" fill="#000000">ButtonOutlinedModule</text>
</g>
<!-- ButtonOutlinedComponent&#45;&gt;ButtonOutlinedModule -->
<g id="edge1" class="edge">
<title>ButtonOutlinedComponent&#45;&gt;ButtonOutlinedModule</title>
<path fill="none" stroke="#000000" d="M287.5544,-122.1061C287.5544,-122.1061 287.5544,-140.991 287.5544,-140.991"/>
<polygon fill="#000000" stroke="#000000" points="284.0544,-140.9909 287.5544,-150.991 291.0544,-140.991 284.0544,-140.9909"/>
</g>
<!-- ButtonOutlinedComponent  -->
<g id="node4" class="node">
<title>ButtonOutlinedComponent </title>
<polygon fill="#fb8072" stroke="#000000" points="333.9432,-252 162.0568,-252 162.0568,-216 333.9432,-216 333.9432,-252"/>
<text text-anchor="middle" x="248" y="-229.8" font-family="Times,serif" font-size="14.00" fill="#000000">ButtonOutlinedComponent </text>
</g>
<!-- ButtonOutlinedModule&#45;&gt;ButtonOutlinedComponent  -->
<g id="edge3" class="edge">
<title>ButtonOutlinedModule&#45;&gt;ButtonOutlinedComponent </title>
<path fill="none" stroke="#000000" stroke-dasharray="5,2" d="M248,-187.1061C248,-187.1061 248,-205.991 248,-205.991"/>
<polygon fill="#000000" stroke="#000000" points="244.5001,-205.9909 248,-215.991 251.5001,-205.991 244.5001,-205.9909"/>
</g>
<!-- LoadingIndicatorModule -->
<g id="node3" class="node">
<title>LoadingIndicatorModule</title>
<polygon fill="#8dd3c7" stroke="#000000" points="230.2394,-122 227.2394,-126 206.2394,-126 203.2394,-122 73.7606,-122 73.7606,-86 230.2394,-86 230.2394,-122"/>
<text text-anchor="middle" x="152" y="-99.8" font-family="Times,serif" font-size="14.00" fill="#000000">LoadingIndicatorModule</text>
</g>
<!-- LoadingIndicatorModule&#45;&gt;ButtonOutlinedModule -->
<g id="edge2" class="edge">
<title>LoadingIndicatorModule&#45;&gt;ButtonOutlinedModule</title>
<path fill="none" stroke="#000000" d="M202.5196,-122.1061C202.5196,-122.1061 202.5196,-140.991 202.5196,-140.991"/>
<polygon fill="#000000" stroke="#000000" points="199.0197,-140.9909 202.5196,-150.991 206.0197,-140.991 199.0197,-140.9909"/>
</g>
</g>
</svg>
