<?xml version="1.0" encoding="UTF-8" standalone="no"?>
<!DOCTYPE svg PUBLIC "-//W3C//DTD SVG 1.1//EN"
 "http://www.w3.org/Graphics/SVG/1.1/DTD/svg11.dtd">
<!-- Generated by graphviz version 2.40.1 (20161225.0304)
 -->
<!-- Title: dependencies Pages: 1 -->
<svg width="504pt" height="284pt"
 viewBox="0.00 0.00 504.00 284.00" xmlns="http://www.w3.org/2000/svg" xmlns:xlink="http://www.w3.org/1999/xlink">
<g id="graph0" class="graph" transform="scale(1 1) rotate(0) translate(4 280)">
<title>dependencies</title>
<polygon fill="#ffffff" stroke="transparent" points="-4,4 -4,-280 500,-280 500,4 -4,4"/>
<text text-anchor="start" x="227.0091" y="-42.4" font-family="sans-serif" font-weight="bold" font-size="14.00" fill="#000000">Legend</text>
<polygon fill="#ffffb3" stroke="transparent" points="14,-10 14,-30 34,-30 34,-10 14,-10"/>
<text text-anchor="start" x="37.629" y="-15.4" font-family="sans-serif" font-size="14.00" fill="#000000"> &#160;Declarations</text>
<polygon fill="#8dd3c7" stroke="transparent" points="127,-10 127,-30 147,-30 147,-10 127,-10"/>
<text text-anchor="start" x="150.7251" y="-15.4" font-family="sans-serif" font-size="14.00" fill="#000000"> &#160;Module</text>
<polygon fill="#80b1d3" stroke="transparent" points="213,-10 213,-30 233,-30 233,-10 213,-10"/>
<text text-anchor="start" x="236.7812" y="-15.4" font-family="sans-serif" font-size="14.00" fill="#000000"> &#160;Bootstrap</text>
<polygon fill="#fdb462" stroke="transparent" points="310,-10 310,-30 330,-30 330,-10 310,-10"/>
<text text-anchor="start" x="333.6732" y="-15.4" font-family="sans-serif" font-size="14.00" fill="#000000"> &#160;Providers</text>
<polygon fill="#fb8072" stroke="transparent" points="406,-10 406,-30 426,-30 426,-10 406,-10"/>
<text text-anchor="start" x="429.7258" y="-15.4" font-family="sans-serif" font-size="14.00" fill="#000000"> &#160;Exports</text>
<g id="clust1" class="cluster">
<title>cluster_SnackbarModule</title>
<polygon fill="none" stroke="#000000" stroke-dasharray="1,5" points="77,-70 77,-268 419,-268 419,-70 77,-70"/>
</g>
<g id="clust2" class="cluster">
<title>cluster_SnackbarModule_declarations</title>
<polygon fill="none" stroke="#000000" points="261,-78 261,-130 411,-130 411,-78 261,-78"/>
</g>
<g id="clust5" class="cluster">
<title>cluster_SnackbarModule_exports</title>
<polygon fill="none" stroke="#000000" points="176,-208 176,-260 328,-260 328,-208 176,-208"/>
</g>
<g id="clust7" class="cluster">
<title>cluster_SnackbarModule_providers</title>
<polygon fill="none" stroke="#000000" points="85,-78 85,-130 253,-130 253,-78 85,-78"/>
</g>
<!-- SnackbarComponent -->
<g id="node1" class="node">
<title>SnackbarComponent</title>
<polygon fill="#ffffb3" stroke="#000000" points="402.9201,-122 269.0799,-122 269.0799,-86 402.9201,-86 402.9201,-122"/>
<text text-anchor="middle" x="336" y="-99.8" font-family="Times,serif" font-size="14.00" fill="#000000">SnackbarComponent</text>
</g>
<!-- SnackbarModule -->
<g id="node2" class="node">
<title>SnackbarModule</title>
<polygon fill="#8dd3c7" stroke="#000000" points="307.6374,-187 304.6374,-191 283.6374,-191 280.6374,-187 196.3626,-187 196.3626,-151 307.6374,-151 307.6374,-187"/>
<text text-anchor="middle" x="252" y="-164.8" font-family="Times,serif" font-size="14.00" fill="#000000">SnackbarModule</text>
</g>
<!-- SnackbarComponent&#45;&gt;SnackbarModule -->
<g id="edge1" class="edge">
<title>SnackbarComponent&#45;&gt;SnackbarModule</title>
<path fill="none" stroke="#000000" d="M288.5544,-122.1061C288.5544,-122.1061 288.5544,-140.991 288.5544,-140.991"/>
<polygon fill="#000000" stroke="#000000" points="285.0544,-140.9909 288.5544,-150.991 292.0544,-140.991 285.0544,-140.9909"/>
</g>
<!-- SnackbarComponent  -->
<g id="node3" class="node">
<title>SnackbarComponent </title>
<polygon fill="#fb8072" stroke="#000000" points="320.4194,-252 183.5806,-252 183.5806,-216 320.4194,-216 320.4194,-252"/>
<text text-anchor="middle" x="252" y="-229.8" font-family="Times,serif" font-size="14.00" fill="#000000">SnackbarComponent </text>
</g>
<!-- SnackbarModule&#45;&gt;SnackbarComponent  -->
<g id="edge2" class="edge">
<title>SnackbarModule&#45;&gt;SnackbarComponent </title>
<path fill="none" stroke="#000000" stroke-dasharray="5,2" d="M252,-187.1061C252,-187.1061 252,-205.991 252,-205.991"/>
<polygon fill="#000000" stroke="#000000" points="248.5001,-205.9909 252,-215.991 255.5001,-205.991 248.5001,-205.9909"/>
</g>
<!-- SnackbarService -->
<g id="node4" class="node">
<title>SnackbarService</title>
<ellipse fill="#fdb462" stroke="#000000" cx="169" cy="-104" rx="75.8412" ry="18"/>
<text text-anchor="middle" x="169" y="-99.8" font-family="Times,serif" font-size="14.00" fill="#000000">SnackbarService</text>
</g>
<!-- SnackbarService&#45;&gt;SnackbarModule -->
<g id="edge3" class="edge">
<title>SnackbarService&#45;&gt;SnackbarModule</title>
<path fill="none" stroke="#000000" d="M220.5511,-117.468C220.5511,-117.468 220.5511,-140.8642 220.5511,-140.8642"/>
<polygon fill="#000000" stroke="#000000" points="217.0512,-140.8641 220.5511,-150.8642 224.0512,-140.8642 217.0512,-140.8641"/>
</g>
</g>
</svg>
