<?xml version="1.0" encoding="UTF-8" standalone="no"?>
<!DOCTYPE svg PUBLIC "-//W3C//DTD SVG 1.1//EN"
 "http://www.w3.org/Graphics/SVG/1.1/DTD/svg11.dtd">
<!-- Generated by graphviz version 2.40.1 (20161225.0304)
 -->
<!-- Title: dependencies Pages: 1 -->
<svg width="2399pt" height="211pt"
 viewBox="0.00 0.00 2399.00 211.00" xmlns="http://www.w3.org/2000/svg" xmlns:xlink="http://www.w3.org/1999/xlink">
<g id="graph0" class="graph" transform="scale(1 1) rotate(0) translate(4 207)">
<title>dependencies</title>
<polygon fill="#ffffff" stroke="transparent" points="-4,4 -4,-207 2395,-207 2395,4 -4,4"/>
<text text-anchor="start" x="1174.5091" y="-42.4" font-family="sans-serif" font-weight="bold" font-size="14.00" fill="#000000">Legend</text>
<polygon fill="#ffffb3" stroke="transparent" points="961.5,-10 961.5,-30 981.5,-30 981.5,-10 961.5,-10"/>
<text text-anchor="start" x="985.129" y="-15.4" font-family="sans-serif" font-size="14.00" fill="#000000"> &#160;Declarations</text>
<polygon fill="#8dd3c7" stroke="transparent" points="1074.5,-10 1074.5,-30 1094.5,-30 1094.5,-10 1074.5,-10"/>
<text text-anchor="start" x="1098.2251" y="-15.4" font-family="sans-serif" font-size="14.00" fill="#000000"> &#160;Module</text>
<polygon fill="#80b1d3" stroke="transparent" points="1160.5,-10 1160.5,-30 1180.5,-30 1180.5,-10 1160.5,-10"/>
<text text-anchor="start" x="1184.2812" y="-15.4" font-family="sans-serif" font-size="14.00" fill="#000000"> &#160;Bootstrap</text>
<polygon fill="#fdb462" stroke="transparent" points="1257.5,-10 1257.5,-30 1277.5,-30 1277.5,-10 1257.5,-10"/>
<text text-anchor="start" x="1281.1732" y="-15.4" font-family="sans-serif" font-size="14.00" fill="#000000"> &#160;Providers</text>
<polygon fill="#fb8072" stroke="transparent" points="1353.5,-10 1353.5,-30 1373.5,-30 1373.5,-10 1353.5,-10"/>
<text text-anchor="start" x="1377.2258" y="-15.4" font-family="sans-serif" font-size="14.00" fill="#000000"> &#160;Exports</text>
<g id="clust1" class="cluster">
<title>cluster_ResourceManagementModule</title>
<polygon fill="none" stroke="#000000" stroke-dasharray="1,5" points="8,-70 8,-195 2383,-195 2383,-70 8,-70"/>
</g>
<g id="clust2" class="cluster">
<title>cluster_ResourceManagementModule_declarations</title>
<polygon fill="none" stroke="#000000" points="1721,-78 1721,-130 2375,-130 2375,-78 1721,-78"/>
</g>
<g id="clust7" class="cluster">
<title>cluster_ResourceManagementModule_imports</title>
<polygon fill="none" stroke="#000000" points="292,-78 292,-130 1713,-130 1713,-78 292,-78"/>
</g>
<g id="clust10" class="cluster">
<title>cluster_ResourceManagementModule_providers</title>
<polygon fill="none" stroke="#000000" points="16,-78 16,-130 284,-130 284,-78 16,-78"/>
</g>
<!-- GroupEditorComponent -->
<g id="node1" class="node">
<title>GroupEditorComponent</title>
<polygon fill="#ffffb3" stroke="#000000" points="2367.094,-122 2214.906,-122 2214.906,-86 2367.094,-86 2367.094,-122"/>
<text text-anchor="middle" x="2291" y="-99.8" font-family="Times,serif" font-size="14.00" fill="#000000">GroupEditorComponent</text>
</g>
<!-- ResourceManagementModule -->
<g id="node5" class="node">
<title>ResourceManagementModule</title>
<polygon fill="#8dd3c7" stroke="#000000" points="1393.2198,-187 1390.2198,-191 1369.2198,-191 1366.2198,-187 1208.7802,-187 1208.7802,-151 1393.2198,-151 1393.2198,-187"/>
<text text-anchor="middle" x="1301" y="-164.8" font-family="Times,serif" font-size="14.00" fill="#000000">ResourceManagementModule</text>
</g>
<!-- GroupEditorComponent&#45;&gt;ResourceManagementModule -->
<g id="edge1" class="edge">
<title>GroupEditorComponent&#45;&gt;ResourceManagementModule</title>
<path fill="none" stroke="#000000" d="M2291,-122.0908C2291,-145.1328 2291,-182 2291,-182 2291,-182 1403.2478,-182 1403.2478,-182"/>
<polygon fill="#000000" stroke="#000000" points="1403.2478,-178.5001 1393.2478,-182 1403.2478,-185.5001 1403.2478,-178.5001"/>
</g>
<!-- ModifyComponent -->
<g id="node2" class="node">
<title>ModifyComponent</title>
<polygon fill="#ffffb3" stroke="#000000" points="2196.8286,-122 2073.1714,-122 2073.1714,-86 2196.8286,-86 2196.8286,-122"/>
<text text-anchor="middle" x="2135" y="-99.8" font-family="Times,serif" font-size="14.00" fill="#000000">ModifyComponent</text>
</g>
<!-- ModifyComponent&#45;&gt;ResourceManagementModule -->
<g id="edge2" class="edge">
<title>ModifyComponent&#45;&gt;ResourceManagementModule</title>
<path fill="none" stroke="#000000" d="M2135,-122.2843C2135,-143.3211 2135,-175 2135,-175 2135,-175 1403.4391,-175 1403.4391,-175"/>
<polygon fill="#000000" stroke="#000000" points="1403.4392,-171.5001 1393.4391,-175 1403.4391,-178.5001 1403.4392,-171.5001"/>
</g>
<!-- ProductEditorComponent -->
<g id="node3" class="node">
<title>ProductEditorComponent</title>
<polygon fill="#ffffb3" stroke="#000000" points="2054.8752,-122 1895.1248,-122 1895.1248,-86 2054.8752,-86 2054.8752,-122"/>
<text text-anchor="middle" x="1975" y="-99.8" font-family="Times,serif" font-size="14.00" fill="#000000">ProductEditorComponent</text>
</g>
<!-- ProductEditorComponent&#45;&gt;ResourceManagementModule -->
<g id="edge3" class="edge">
<title>ProductEditorComponent&#45;&gt;ResourceManagementModule</title>
<path fill="none" stroke="#000000" d="M1975,-122.1061C1975,-141.3391 1975,-169 1975,-169 1975,-169 1403.3036,-169 1403.3036,-169"/>
<polygon fill="#000000" stroke="#000000" points="1403.3036,-165.5001 1393.3036,-169 1403.3036,-172.5001 1403.3036,-165.5001"/>
</g>
<!-- TableEditorComponent -->
<g id="node4" class="node">
<title>TableEditorComponent</title>
<polygon fill="#ffffb3" stroke="#000000" points="1877.1993,-122 1728.8007,-122 1728.8007,-86 1877.1993,-86 1877.1993,-122"/>
<text text-anchor="middle" x="1803" y="-99.8" font-family="Times,serif" font-size="14.00" fill="#000000">TableEditorComponent</text>
</g>
<!-- TableEditorComponent&#45;&gt;ResourceManagementModule -->
<g id="edge4" class="edge">
<title>TableEditorComponent&#45;&gt;ResourceManagementModule</title>
<path fill="none" stroke="#000000" d="M1803,-122.0225C1803,-139.3734 1803,-163 1803,-163 1803,-163 1403.3669,-163 1403.3669,-163"/>
<polygon fill="#000000" stroke="#000000" points="1403.3669,-159.5001 1393.3669,-163 1403.3668,-166.5001 1403.3669,-159.5001"/>
</g>
<!-- ButtonOutlinedModule -->
<g id="node6" class="node">
<title>ButtonOutlinedModule</title>
<polygon fill="#8dd3c7" stroke="#000000" points="1705.161,-122 1702.161,-126 1681.161,-126 1678.161,-122 1558.839,-122 1558.839,-86 1705.161,-86 1705.161,-122"/>
<text text-anchor="middle" x="1632" y="-99.8" font-family="Times,serif" font-size="14.00" fill="#000000">ButtonOutlinedModule</text>
</g>
<!-- ButtonOutlinedModule&#45;&gt;ResourceManagementModule -->
<g id="edge5" class="edge">
<title>ButtonOutlinedModule&#45;&gt;ResourceManagementModule</title>
<path fill="none" stroke="#000000" d="M1632,-122.2396C1632,-137.5706 1632,-157 1632,-157 1632,-157 1403.6421,-157 1403.6421,-157"/>
<polygon fill="#000000" stroke="#000000" points="1403.6421,-153.5001 1393.6421,-157 1403.6421,-160.5001 1403.6421,-153.5001"/>
</g>
<!-- ConfirmationDialogModule -->
<g id="node7" class="node">
<title>ConfirmationDialogModule</title>
<polygon fill="#8dd3c7" stroke="#000000" points="1540.587,-122 1537.587,-126 1516.587,-126 1513.587,-122 1367.413,-122 1367.413,-86 1540.587,-86 1540.587,-122"/>
<text text-anchor="middle" x="1454" y="-99.8" font-family="Times,serif" font-size="14.00" fill="#000000">ConfirmationDialogModule</text>
</g>
<!-- ConfirmationDialogModule&#45;&gt;ResourceManagementModule -->
<g id="edge6" class="edge">
<title>ConfirmationDialogModule&#45;&gt;ResourceManagementModule</title>
<path fill="none" stroke="#000000" d="M1380.4082,-122.1061C1380.4082,-122.1061 1380.4082,-140.991 1380.4082,-140.991"/>
<polygon fill="#000000" stroke="#000000" points="1376.9082,-140.9909 1380.4082,-150.991 1383.9082,-140.991 1376.9082,-140.9909"/>
</g>
<!-- DialogModule -->
<g id="node8" class="node">
<title>DialogModule</title>
<polygon fill="#8dd3c7" stroke="#000000" points="1349.6528,-122 1346.6528,-126 1325.6528,-126 1322.6528,-122 1252.3472,-122 1252.3472,-86 1349.6528,-86 1349.6528,-122"/>
<text text-anchor="middle" x="1301" y="-99.8" font-family="Times,serif" font-size="14.00" fill="#000000">DialogModule</text>
</g>
<!-- DialogModule&#45;&gt;ResourceManagementModule -->
<g id="edge7" class="edge">
<title>DialogModule&#45;&gt;ResourceManagementModule</title>
<path fill="none" stroke="#000000" d="M1301,-122.1061C1301,-122.1061 1301,-140.991 1301,-140.991"/>
<polygon fill="#000000" stroke="#000000" points="1297.5001,-140.9909 1301,-150.991 1304.5001,-140.991 1297.5001,-140.9909"/>
</g>
<!-- ExpansionPanelModule -->
<g id="node9" class="node">
<title>ExpansionPanelModule</title>
<polygon fill="#8dd3c7" stroke="#000000" points="1233.7548,-122 1230.7548,-126 1209.7548,-126 1206.7548,-122 1084.2452,-122 1084.2452,-86 1233.7548,-86 1233.7548,-122"/>
<text text-anchor="middle" x="1159" y="-99.8" font-family="Times,serif" font-size="14.00" fill="#000000">ExpansionPanelModule</text>
</g>
<!-- ExpansionPanelModule&#45;&gt;ResourceManagementModule -->
<g id="edge8" class="edge">
<title>ExpansionPanelModule&#45;&gt;ResourceManagementModule</title>
<path fill="none" stroke="#000000" d="M1221.2588,-122.1061C1221.2588,-122.1061 1221.2588,-140.991 1221.2588,-140.991"/>
<polygon fill="#000000" stroke="#000000" points="1217.7588,-140.9909 1221.2588,-150.991 1224.7588,-140.991 1217.7588,-140.9909"/>
</g>
<!-- LoadingIndicatorModule -->
<g id="node10" class="node">
<title>LoadingIndicatorModule</title>
<polygon fill="#8dd3c7" stroke="#000000" points="1066.2394,-122 1063.2394,-126 1042.2394,-126 1039.2394,-122 909.7606,-122 909.7606,-86 1066.2394,-86 1066.2394,-122"/>
<text text-anchor="middle" x="988" y="-99.8" font-family="Times,serif" font-size="14.00" fill="#000000">LoadingIndicatorModule</text>
</g>
<!-- LoadingIndicatorModule&#45;&gt;ResourceManagementModule -->
<g id="edge9" class="edge">
<title>LoadingIndicatorModule&#45;&gt;ResourceManagementModule</title>
<path fill="none" stroke="#000000" d="M988,-122.2396C988,-137.5706 988,-157 988,-157 988,-157 1198.3601,-157 1198.3601,-157"/>
<polygon fill="#000000" stroke="#000000" points="1198.3601,-160.5001 1208.3601,-157 1198.3601,-153.5001 1198.3601,-160.5001"/>
</g>
<!-- ResourceManagementRoutingModule -->
<g id="node11" class="node">
<title>ResourceManagementRoutingModule</title>
<polygon fill="#8dd3c7" stroke="#000000" points="891.8375,-122 888.8375,-126 867.8375,-126 864.8375,-122 662.1625,-122 662.1625,-86 891.8375,-86 891.8375,-122"/>
<text text-anchor="middle" x="777" y="-99.8" font-family="Times,serif" font-size="14.00" fill="#000000">ResourceManagementRoutingModule</text>
</g>
<!-- ResourceManagementRoutingModule&#45;&gt;ResourceManagementModule -->
<g id="edge10" class="edge">
<title>ResourceManagementRoutingModule&#45;&gt;ResourceManagementModule</title>
<path fill="none" stroke="#000000" d="M777,-122.0225C777,-139.3734 777,-163 777,-163 777,-163 1198.5255,-163 1198.5255,-163"/>
<polygon fill="#000000" stroke="#000000" points="1198.5256,-166.5001 1208.5255,-163 1198.5255,-159.5001 1198.5256,-166.5001"/>
</g>
<!-- ResourceManagementStoreModule -->
<g id="node12" class="node">
<title>ResourceManagementStoreModule</title>
<polygon fill="#8dd3c7" stroke="#000000" points="644.2682,-122 641.2682,-126 620.2682,-126 617.2682,-122 429.7318,-122 429.7318,-86 644.2682,-86 644.2682,-122"/>
<text text-anchor="middle" x="537" y="-99.8" font-family="Times,serif" font-size="14.00" fill="#000000">ResourceManagementStoreModule</text>
</g>
<!-- ResourceManagementStoreModule&#45;&gt;ResourceManagementModule -->
<g id="edge11" class="edge">
<title>ResourceManagementStoreModule&#45;&gt;ResourceManagementModule</title>
<path fill="none" stroke="#000000" d="M537,-122.1061C537,-141.3391 537,-169 537,-169 537,-169 1198.4634,-169 1198.4634,-169"/>
<polygon fill="#000000" stroke="#000000" points="1198.4634,-172.5001 1208.4634,-169 1198.4634,-165.5001 1198.4634,-172.5001"/>
</g>
<!-- SnackbarModule -->
<g id="node13" class="node">
<title>SnackbarModule</title>
<polygon fill="#8dd3c7" stroke="#000000" points="411.6374,-122 408.6374,-126 387.6374,-126 384.6374,-122 300.3626,-122 300.3626,-86 411.6374,-86 411.6374,-122"/>
<text text-anchor="middle" x="356" y="-99.8" font-family="Times,serif" font-size="14.00" fill="#000000">SnackbarModule</text>
</g>
<!-- SnackbarModule&#45;&gt;ResourceManagementModule -->
<g id="edge12" class="edge">
<title>SnackbarModule&#45;&gt;ResourceManagementModule</title>
<path fill="none" stroke="#000000" d="M356,-122.2843C356,-143.3211 356,-175 356,-175 356,-175 1198.6688,-175 1198.6688,-175"/>
<polygon fill="#000000" stroke="#000000" points="1198.6688,-178.5001 1208.6688,-175 1198.6688,-171.5001 1198.6688,-178.5001"/>
</g>
<!-- ResourceManagementService -->
<g id="node14" class="node">
<title>ResourceManagementService</title>
<ellipse fill="#fdb462" stroke="#000000" cx="150" cy="-104" rx="126.1637" ry="18"/>
<text text-anchor="middle" x="150" y="-99.8" font-family="Times,serif" font-size="14.00" fill="#000000">ResourceManagementService</text>
</g>
<!-- ResourceManagementService&#45;&gt;ResourceManagementModule -->
<g id="edge13" class="edge">
<title>ResourceManagementService&#45;&gt;ResourceManagementModule</title>
<path fill="none" stroke="#000000" d="M150,-122.0908C150,-145.1328 150,-182 150,-182 150,-182 1198.7545,-182 1198.7545,-182"/>
<polygon fill="#000000" stroke="#000000" points="1198.7545,-185.5001 1208.7545,-182 1198.7545,-178.5001 1198.7545,-185.5001"/>
</g>
</g>
</svg>
