<?xml version="1.0" encoding="UTF-8" standalone="no"?>
<!DOCTYPE svg PUBLIC "-//W3C//DTD SVG 1.1//EN"
 "http://www.w3.org/Graphics/SVG/1.1/DTD/svg11.dtd">
<!-- Generated by graphviz version 2.40.1 (20161225.0304)
 -->
<!-- Title: dependencies Pages: 1 -->
<svg width="504pt" height="211pt"
 viewBox="0.00 0.00 504.00 211.00" xmlns="http://www.w3.org/2000/svg" xmlns:xlink="http://www.w3.org/1999/xlink">
<g id="graph0" class="graph" transform="scale(1 1) rotate(0) translate(4 207)">
<title>dependencies</title>
<polygon fill="#ffffff" stroke="transparent" points="-4,4 -4,-207 500,-207 500,4 -4,4"/>
<text text-anchor="start" x="227.0091" y="-42.4" font-family="sans-serif" font-weight="bold" font-size="14.00" fill="#000000">Legend</text>
<polygon fill="#ffffb3" stroke="transparent" points="14,-10 14,-30 34,-30 34,-10 14,-10"/>
<text text-anchor="start" x="37.629" y="-15.4" font-family="sans-serif" font-size="14.00" fill="#000000"> &#160;Declarations</text>
<polygon fill="#8dd3c7" stroke="transparent" points="127,-10 127,-30 147,-30 147,-10 127,-10"/>
<text text-anchor="start" x="150.7251" y="-15.4" font-family="sans-serif" font-size="14.00" fill="#000000"> &#160;Module</text>
<polygon fill="#80b1d3" stroke="transparent" points="213,-10 213,-30 233,-30 233,-10 213,-10"/>
<text text-anchor="start" x="236.7812" y="-15.4" font-family="sans-serif" font-size="14.00" fill="#000000"> &#160;Bootstrap</text>
<polygon fill="#fdb462" stroke="transparent" points="310,-10 310,-30 330,-30 330,-10 310,-10"/>
<text text-anchor="start" x="333.6732" y="-15.4" font-family="sans-serif" font-size="14.00" fill="#000000"> &#160;Providers</text>
<polygon fill="#fb8072" stroke="transparent" points="406,-10 406,-30 426,-30 426,-10 406,-10"/>
<text text-anchor="start" x="429.7258" y="-15.4" font-family="sans-serif" font-size="14.00" fill="#000000"> &#160;Exports</text>
<g id="clust1" class="cluster">
<title>cluster_ProductPageModule</title>
<polygon fill="none" stroke="#000000" stroke-dasharray="1,5" points="68,-70 68,-195 428,-195 428,-70 68,-70"/>
</g>
<g id="clust2" class="cluster">
<title>cluster_ProductPageModule_declarations</title>
<polygon fill="none" stroke="#000000" points="252,-78 252,-130 420,-130 420,-78 252,-78"/>
</g>
<g id="clust4" class="cluster">
<title>cluster_ProductPageModule_imports</title>
<polygon fill="none" stroke="#000000" points="76,-78 76,-130 244,-130 244,-78 76,-78"/>
</g>
<!-- ProductPageComponent -->
<g id="node1" class="node">
<title>ProductPageComponent</title>
<polygon fill="#ffffb3" stroke="#000000" points="412.0926,-122 259.9074,-122 259.9074,-86 412.0926,-86 412.0926,-122"/>
<text text-anchor="middle" x="336" y="-99.8" font-family="Times,serif" font-size="14.00" fill="#000000">ProductPageComponent</text>
</g>
<!-- ProductPageModule -->
<g id="node2" class="node">
<title>ProductPageModule</title>
<polygon fill="#8dd3c7" stroke="#000000" points="313.3104,-187 310.3104,-191 289.3104,-191 286.3104,-187 182.6896,-187 182.6896,-151 313.3104,-151 313.3104,-187"/>
<text text-anchor="middle" x="248" y="-164.8" font-family="Times,serif" font-size="14.00" fill="#000000">ProductPageModule</text>
</g>
<!-- ProductPageComponent&#45;&gt;ProductPageModule -->
<g id="edge1" class="edge">
<title>ProductPageComponent&#45;&gt;ProductPageModule</title>
<path fill="none" stroke="#000000" d="M286.5544,-122.1061C286.5544,-122.1061 286.5544,-140.991 286.5544,-140.991"/>
<polygon fill="#000000" stroke="#000000" points="283.0544,-140.9909 286.5544,-150.991 290.0544,-140.991 283.0544,-140.9909"/>
</g>
<!-- AmountSelectorModule -->
<g id="node3" class="node">
<title>AmountSelectorModule</title>
<polygon fill="#8dd3c7" stroke="#000000" points="235.8061,-122 232.8061,-126 211.8061,-126 208.8061,-122 84.1939,-122 84.1939,-86 235.8061,-86 235.8061,-122"/>
<text text-anchor="middle" x="160" y="-99.8" font-family="Times,serif" font-size="14.00" fill="#000000">AmountSelectorModule</text>
</g>
<!-- AmountSelectorModule&#45;&gt;ProductPageModule -->
<g id="edge2" class="edge">
<title>AmountSelectorModule&#45;&gt;ProductPageModule</title>
<path fill="none" stroke="#000000" d="M209.249,-122.1061C209.249,-122.1061 209.249,-140.991 209.249,-140.991"/>
<polygon fill="#000000" stroke="#000000" points="205.749,-140.9909 209.249,-150.991 212.749,-140.991 205.749,-140.9909"/>
</g>
</g>
</svg>
